<svg width="52" height="12" viewBox="0 0 52 12" fill="none" xmlns="http://www.w3.org/2000/svg">
<path d="M2.54545 0.272727L3.43608 6.66477H3.50852L6.52131 0.272727H8.8821L4.48864 9H1.6804L0.184659 0.272727H2.54545ZM10.6303 9.12358C9.94567 9.12358 9.37749 8.98864 8.92578 8.71875C8.47692 8.44602 8.16158 8.05824 7.97976 7.5554C7.79794 7.04972 7.76527 6.44886 7.88175 5.75284C7.99538 5.0767 8.22692 4.4858 8.57635 3.98011C8.92862 3.47159 9.3718 3.0767 9.90589 2.79545C10.44 2.51136 11.0352 2.36932 11.6914 2.36932C12.1573 2.36932 12.5707 2.44176 12.9315 2.58665C13.2923 2.73153 13.5906 2.94744 13.8263 3.23438C14.0621 3.51847 14.2227 3.8679 14.3079 4.28267C14.3931 4.69744 14.3903 5.1733 14.2994 5.71023L14.2184 6.23011H8.53374L8.7255 5.01989H12.4755C12.5096 4.7983 12.4911 4.60085 12.4201 4.42756C12.3491 4.25426 12.234 4.11932 12.0749 4.02273C11.9187 3.9233 11.7269 3.87358 11.4996 3.87358C11.2695 3.87358 11.0536 3.92756 10.8519 4.03551C10.6531 4.14062 10.484 4.28267 10.3448 4.46165C10.2056 4.64062 10.1147 4.84233 10.0721 5.06676L9.84624 6.30682C9.80078 6.58239 9.81357 6.81818 9.88459 7.0142C9.95561 7.21023 10.0778 7.3608 10.2511 7.46591C10.4244 7.56818 10.6474 7.61932 10.9201 7.61932C11.1019 7.61932 11.2724 7.59517 11.4315 7.54688C11.5906 7.49574 11.7326 7.42045 11.8576 7.32102C11.9854 7.21875 12.0891 7.09517 12.1687 6.95028L14.0692 7.00568C13.9158 7.43466 13.6786 7.80824 13.3576 8.12642C13.0366 8.44176 12.6445 8.6875 12.1815 8.86364C11.7212 9.03693 11.2042 9.12358 10.6303 9.12358ZM17.8565 9.12358C17.1662 9.12358 16.5966 8.98153 16.1477 8.69744C15.7017 8.41335 15.3892 8.01847 15.2102 7.51278C15.0312 7.00426 14.9986 6.41619 15.1122 5.74858C15.2202 5.07812 15.4489 4.49006 15.7983 3.98438C16.1477 3.47585 16.5938 3.07955 17.1364 2.79545C17.679 2.51136 18.2926 2.36932 18.9773 2.36932C19.5824 2.36932 20.0909 2.47869 20.5028 2.69744C20.9176 2.91619 21.2173 3.22585 21.402 3.62642C21.5895 4.02415 21.6449 4.49148 21.5682 5.02841H19.6207C19.6378 4.69602 19.5696 4.43466 19.4162 4.24432C19.2628 4.05114 19.0398 3.95455 18.7472 3.95455C18.5 3.95455 18.2727 4.02273 18.0653 4.15909C17.8608 4.29261 17.6861 4.49148 17.5412 4.75568C17.3991 5.01705 17.2969 5.34091 17.2344 5.72727C17.1719 6.11364 17.1676 6.44034 17.2216 6.70739C17.2784 6.97159 17.3849 7.17187 17.5412 7.30824C17.7003 7.44176 17.902 7.50852 18.1463 7.50852C18.3395 7.50852 18.5185 7.46733 18.6832 7.38494C18.848 7.30256 18.9915 7.18182 19.1136 7.02273C19.2358 6.8608 19.331 6.66477 19.3991 6.43466H21.3423C21.2315 6.97727 21.017 7.45028 20.6989 7.85369C20.3835 8.25426 19.9844 8.56676 19.5014 8.79119C19.0185 9.01278 18.4702 9.12358 17.8565 9.12358ZM24.6971 5.26705L24.0749 9H21.9911L23.44 0.272727H25.4556L24.9016 3.65625H24.9741C25.1843 3.25284 25.4769 2.9375 25.8519 2.71023C26.2269 2.48295 26.6616 2.36932 27.1559 2.36932C27.6104 2.36932 27.9911 2.47159 28.2979 2.67614C28.6048 2.87784 28.8221 3.16335 28.9499 3.53267C29.0778 3.90199 29.1005 4.33381 29.0181 4.82812L28.3192 9H26.2354L26.8661 5.23722C26.9229 4.87358 26.8761 4.58949 26.7255 4.38494C26.5749 4.1804 26.3335 4.07812 26.0011 4.07812C25.7823 4.07812 25.5806 4.12642 25.396 4.22301C25.2141 4.31676 25.0621 4.4517 24.94 4.62784C24.8178 4.80398 24.7369 5.01705 24.6971 5.26705ZM32.326 5.26705L31.7038 9H29.62L30.7109 2.45455H32.6925L32.4964 3.65625H32.5689C32.7734 3.25568 33.0703 2.94176 33.4595 2.71449C33.8487 2.48438 34.2862 2.36932 34.772 2.36932C35.2294 2.36932 35.6115 2.47159 35.9183 2.67614C36.2251 2.88068 36.4425 3.16761 36.5703 3.53693C36.6982 3.90341 36.7195 4.33381 36.6342 4.82812L35.9354 9H33.8516L34.478 5.23722C34.5405 4.87642 34.4964 4.59375 34.3459 4.3892C34.1982 4.18182 33.9567 4.07812 33.6214 4.07812C33.4027 4.07812 33.2024 4.12642 33.0206 4.22301C32.8416 4.31676 32.6911 4.4517 32.5689 4.62784C32.4496 4.80398 32.3686 5.01705 32.326 5.26705ZM37.8519 11.4545C37.6019 11.4545 37.369 11.4347 37.1531 11.3949C36.94 11.358 36.7582 11.3082 36.6076 11.2457L37.3235 9.73295C37.5138 9.80114 37.6886 9.83949 37.8477 9.84801C38.0096 9.85938 38.1545 9.83239 38.2823 9.76705C38.413 9.70455 38.5266 9.59233 38.6232 9.4304L38.7425 9.23011L37.5451 2.45455H39.6502L40.0763 7.12926H40.1445L42.1474 2.45455H44.4187L40.7667 9.62642C40.582 9.98438 40.359 10.3011 40.0977 10.5767C39.8363 10.8523 39.521 11.0668 39.1516 11.2202C38.7852 11.3764 38.3519 11.4545 37.8519 11.4545ZM45.0004 11.4545C44.7504 11.4545 44.5174 11.4347 44.3015 11.3949C44.0884 11.358 43.9066 11.3082 43.756 11.2457L44.4719 9.73295C44.6623 9.80114 44.837 9.83949 44.9961 9.84801C45.158 9.85938 45.3029 9.83239 45.4308 9.76705C45.5614 9.70455 45.6751 9.59233 45.7717 9.4304L45.891 9.23011L44.6935 2.45455H46.7987L47.2248 7.12926H47.293L49.2958 2.45455H51.5671L47.9151 9.62642C47.7305 9.98438 47.5075 10.3011 47.2461 10.5767C46.9847 10.8523 46.6694 11.0668 46.3001 11.2202C45.9336 11.3764 45.5004 11.4545 45.0004 11.4545Z" fill="white"/>
</svg>
