<svg width="107" height="15" viewBox="0 0 107 15" fill="" xmlns="http://www.w3.org/2000/svg">
<path d="M0.758523 12V3.27273H2.60369V7.12074H2.71875L5.85938 3.27273H8.07102L4.83239 7.1804L8.10938 12H5.90199L3.51136 8.41193L2.60369 9.51989V12H0.758523ZM10.8132 8.21591V12H8.99787V3.27273H10.7621V6.60938H10.8388C10.9865 6.22301 11.2251 5.92045 11.5547 5.7017C11.8842 5.48011 12.2976 5.36932 12.7947 5.36932C13.2493 5.36932 13.6456 5.46875 13.9837 5.66761C14.3246 5.86364 14.5888 6.14631 14.7763 6.51562C14.9666 6.8821 15.0604 7.32102 15.0575 7.83239V12H13.2422V8.15625C13.245 7.75284 13.1428 7.43892 12.9354 7.21449C12.7308 6.99006 12.4439 6.87784 12.0746 6.87784C11.8274 6.87784 11.6087 6.9304 11.4183 7.03551C11.2308 7.14062 11.0831 7.29403 10.9751 7.49574C10.87 7.6946 10.8161 7.93466 10.8132 8.21591ZM18.3526 12.1236C17.935 12.1236 17.5629 12.0511 17.2362 11.9062C16.9094 11.7585 16.6509 11.5412 16.4606 11.2543C16.2731 10.9645 16.1793 10.6037 16.1793 10.1719C16.1793 9.80824 16.2461 9.50284 16.3796 9.25568C16.5131 9.00852 16.695 8.80966 16.9251 8.65909C17.1552 8.50852 17.4165 8.39489 17.7092 8.31818C18.0046 8.24148 18.3143 8.1875 18.6381 8.15625C19.0188 8.11648 19.3256 8.07955 19.5586 8.04545C19.7915 8.00852 19.9606 7.95455 20.0657 7.88352C20.1708 7.8125 20.2234 7.70739 20.2234 7.56818V7.54261C20.2234 7.27273 20.1381 7.06392 19.9677 6.91619C19.8001 6.76847 19.5614 6.6946 19.2518 6.6946C18.9251 6.6946 18.6651 6.76705 18.4719 6.91193C18.2788 7.05398 18.1509 7.23295 18.0884 7.44886L16.4094 7.3125C16.4947 6.91477 16.6623 6.57102 16.9123 6.28125C17.1623 5.98864 17.4847 5.7642 17.8796 5.60795C18.2773 5.44886 18.7376 5.36932 19.2603 5.36932C19.6239 5.36932 19.9719 5.41193 20.3043 5.49716C20.6396 5.58239 20.9364 5.71449 21.195 5.89347C21.4563 6.07244 21.6623 6.30256 21.8129 6.58381C21.9634 6.86222 22.0387 7.19602 22.0387 7.58523V12H20.3171V11.0923H20.266C20.1609 11.2969 20.0202 11.4773 19.8441 11.6335C19.668 11.7869 19.4563 11.9077 19.2092 11.9957C18.962 12.081 18.6765 12.1236 18.3526 12.1236ZM18.8725 10.8707C19.1396 10.8707 19.3754 10.8182 19.5799 10.7131C19.7844 10.6051 19.945 10.4602 20.0614 10.2784C20.1779 10.0966 20.2362 9.89062 20.2362 9.66051V8.96591C20.1793 9.00284 20.1012 9.03693 20.0018 9.06818C19.9052 9.09659 19.7958 9.12358 19.6737 9.14915C19.5515 9.17187 19.4293 9.19318 19.3072 9.21307C19.185 9.23011 19.0742 9.24574 18.9748 9.25994C18.7617 9.29119 18.5756 9.34091 18.4165 9.40909C18.2575 9.47727 18.1339 9.5696 18.0458 9.68608C17.9577 9.79972 17.9137 9.94176 17.9137 10.1122C17.9137 10.3594 18.0032 10.5483 18.1822 10.679C18.364 10.8068 18.5941 10.8707 18.8725 10.8707ZM25.2624 3.27273V12H23.4471V3.27273H25.2624ZM26.7166 12V5.45455H28.532V12H26.7166ZM27.6286 4.6108C27.3587 4.6108 27.1271 4.52131 26.9339 4.34233C26.7436 4.16051 26.6484 3.94318 26.6484 3.69034C26.6484 3.44034 26.7436 3.22585 26.9339 3.04688C27.1271 2.86506 27.3587 2.77415 27.6286 2.77415C27.8984 2.77415 28.1286 2.86506 28.3189 3.04688C28.5121 3.22585 28.6087 3.44034 28.6087 3.69034C28.6087 3.94318 28.5121 4.16051 28.3189 4.34233C28.1286 4.52131 27.8984 4.6108 27.6286 4.6108ZM32.3981 12.1065C31.9009 12.1065 31.4506 11.9787 31.0472 11.723C30.6467 11.4645 30.3285 11.0852 30.0927 10.5852C29.8597 10.0824 29.7433 9.46591 29.7433 8.7358C29.7433 7.9858 29.864 7.36222 30.1055 6.86506C30.3469 6.36506 30.668 5.99148 31.0685 5.74432C31.4719 5.49432 31.9137 5.36932 32.3938 5.36932C32.7603 5.36932 33.0657 5.43182 33.31 5.55682C33.5572 5.67898 33.756 5.83239 33.9066 6.01705C34.06 6.19886 34.1765 6.37784 34.256 6.55398H34.3114V3.27273H36.1225V12H34.3327V10.9517H34.256C34.1708 11.1335 34.0501 11.3139 33.8938 11.4929C33.7404 11.669 33.5401 11.8153 33.293 11.9318C33.0487 12.0483 32.7504 12.1065 32.3981 12.1065ZM32.9734 10.6619C33.266 10.6619 33.5131 10.5824 33.7148 10.4233C33.9194 10.2614 34.0756 10.0355 34.1836 9.74574C34.2944 9.45597 34.3498 9.11648 34.3498 8.72727C34.3498 8.33807 34.2958 8 34.1879 7.71307C34.0799 7.42614 33.9237 7.20455 33.7191 7.0483C33.5146 6.89205 33.266 6.81392 32.9734 6.81392C32.6751 6.81392 32.4237 6.89489 32.2191 7.05682C32.0146 7.21875 31.8597 7.44318 31.7546 7.73011C31.6495 8.01705 31.5969 8.34943 31.5969 8.72727C31.5969 9.10795 31.6495 9.4446 31.7546 9.73722C31.8626 10.027 32.0174 10.2543 32.2191 10.419C32.4237 10.581 32.6751 10.6619 32.9734 10.6619ZM41.9308 12H39.9535L42.9663 3.27273H45.3441L48.3526 12H46.3754L44.1893 5.26705H44.1211L41.9308 12ZM41.8072 8.5696H46.4776V10.0099H41.8072V8.5696ZM49.3349 12V10.9176L52.5394 6.95028V6.90341H49.4457V5.45455H54.7255V6.63494L51.717 10.5043V10.5511H54.8363V12H49.3349ZM56.2244 12V5.45455H57.9545V6.60938H58.0312C58.1676 6.22585 58.3949 5.9233 58.7131 5.7017C59.0312 5.48011 59.4119 5.36932 59.8551 5.36932C60.304 5.36932 60.6861 5.48153 61.0014 5.70597C61.3168 5.92756 61.527 6.22869 61.6321 6.60938H61.7003C61.8338 6.23438 62.0753 5.93466 62.4247 5.71023C62.777 5.48295 63.1932 5.36932 63.6733 5.36932C64.2841 5.36932 64.7798 5.56392 65.1605 5.95312C65.544 6.33949 65.7358 6.88778 65.7358 7.59801V12H63.9247V7.95597C63.9247 7.59233 63.8281 7.3196 63.6349 7.13778C63.4418 6.95597 63.2003 6.86506 62.9105 6.86506C62.581 6.86506 62.3239 6.97017 62.1392 7.1804C61.9545 7.38778 61.8622 7.66193 61.8622 8.00284V12H60.1023V7.91761C60.1023 7.59659 60.0099 7.34091 59.8253 7.15057C59.6435 6.96023 59.4034 6.86506 59.1051 6.86506C58.9034 6.86506 58.7216 6.91619 58.5597 7.01847C58.4006 7.1179 58.2741 7.25852 58.1804 7.44034C58.0866 7.61932 58.0398 7.82955 58.0398 8.07102V12H56.2244ZM69.0362 12.1236C68.6186 12.1236 68.2464 12.0511 67.9197 11.9062C67.593 11.7585 67.3345 11.5412 67.1442 11.2543C66.9567 10.9645 66.8629 10.6037 66.8629 10.1719C66.8629 9.80824 66.9297 9.50284 67.0632 9.25568C67.1967 9.00852 67.3786 8.80966 67.6087 8.65909C67.8388 8.50852 68.1001 8.39489 68.3928 8.31818C68.6882 8.24148 68.9979 8.1875 69.3217 8.15625C69.7024 8.11648 70.0092 8.07955 70.2422 8.04545C70.4751 8.00852 70.6442 7.95455 70.7493 7.88352C70.8544 7.8125 70.907 7.70739 70.907 7.56818V7.54261C70.907 7.27273 70.8217 7.06392 70.6513 6.91619C70.4837 6.76847 70.245 6.6946 69.9354 6.6946C69.6087 6.6946 69.3487 6.76705 69.1555 6.91193C68.9624 7.05398 68.8345 7.23295 68.772 7.44886L67.093 7.3125C67.1783 6.91477 67.3459 6.57102 67.5959 6.28125C67.8459 5.98864 68.1683 5.7642 68.5632 5.60795C68.9609 5.44886 69.4212 5.36932 69.9439 5.36932C70.3075 5.36932 70.6555 5.41193 70.9879 5.49716C71.3232 5.58239 71.62 5.71449 71.8786 5.89347C72.1399 6.07244 72.3459 6.30256 72.4964 6.58381C72.647 6.86222 72.7223 7.19602 72.7223 7.58523V12H71.0007V11.0923H70.9496C70.8445 11.2969 70.7038 11.4773 70.5277 11.6335C70.3516 11.7869 70.1399 11.9077 69.8928 11.9957C69.6456 12.081 69.3601 12.1236 69.0362 12.1236ZM69.5561 10.8707C69.8232 10.8707 70.0589 10.8182 70.2635 10.7131C70.468 10.6051 70.6286 10.4602 70.745 10.2784C70.8615 10.0966 70.9197 9.89062 70.9197 9.66051V8.96591C70.8629 9.00284 70.7848 9.03693 70.6854 9.06818C70.5888 9.09659 70.4794 9.12358 70.3572 9.14915C70.2351 9.17187 70.1129 9.19318 69.9908 9.21307C69.8686 9.23011 69.7578 9.24574 69.6584 9.25994C69.4453 9.29119 69.2592 9.34091 69.1001 9.40909C68.9411 9.47727 68.8175 9.5696 68.7294 9.68608C68.6413 9.79972 68.5973 9.94176 68.5973 10.1122C68.5973 10.3594 68.6868 10.5483 68.8658 10.679C69.0476 10.8068 69.2777 10.8707 69.5561 10.8707ZM77.6122 5.45455V6.81818H73.6705V5.45455H77.6122ZM74.5653 3.88636H76.3807V9.98864C76.3807 10.1562 76.4063 10.2869 76.4574 10.3807C76.5085 10.4716 76.5795 10.5355 76.6705 10.5724C76.7642 10.6094 76.8722 10.6278 76.9943 10.6278C77.0795 10.6278 77.1648 10.6207 77.25 10.6065C77.3352 10.5895 77.4006 10.5767 77.446 10.5682L77.7315 11.919C77.6406 11.9474 77.5128 11.9801 77.348 12.017C77.1832 12.0568 76.983 12.081 76.7472 12.0895C76.3097 12.1065 75.9261 12.0483 75.5966 11.9148C75.2699 11.7812 75.0156 11.5739 74.8338 11.2926C74.652 11.0114 74.5625 10.6562 74.5653 10.2273V3.88636ZM82.9922 9.21307V5.45455H84.8075V12H83.0646V10.8111H82.9964C82.8487 11.1946 82.603 11.5028 82.2592 11.7358C81.9183 11.9687 81.5021 12.0852 81.0107 12.0852C80.5732 12.0852 80.1882 11.9858 79.8558 11.7869C79.5234 11.5881 79.2635 11.3054 79.076 10.9389C78.8913 10.5724 78.7976 10.1335 78.7947 9.62216V5.45455H80.6101V9.2983C80.6129 9.68466 80.7166 9.99006 80.9212 10.2145C81.1257 10.4389 81.3999 10.5511 81.7436 10.5511C81.9624 10.5511 82.1669 10.5014 82.3572 10.402C82.5476 10.2997 82.701 10.1491 82.8175 9.95028C82.9368 9.75142 82.995 9.50568 82.9922 9.21307ZM88.0749 3.27273V12H86.2596V3.27273H88.0749ZM91.3445 3.27273V12H89.5291V3.27273H91.3445ZM94.6651 12.1236C94.2475 12.1236 93.8754 12.0511 93.5487 11.9062C93.2219 11.7585 92.9634 11.5412 92.7731 11.2543C92.5856 10.9645 92.4918 10.6037 92.4918 10.1719C92.4918 9.80824 92.5586 9.50284 92.6921 9.25568C92.8256 9.00852 93.0075 8.80966 93.2376 8.65909C93.4677 8.50852 93.729 8.39489 94.0217 8.31818C94.3171 8.24148 94.6268 8.1875 94.9506 8.15625C95.3313 8.11648 95.6381 8.07955 95.8711 8.04545C96.104 8.00852 96.2731 7.95455 96.3782 7.88352C96.4833 7.8125 96.5359 7.70739 96.5359 7.56818V7.54261C96.5359 7.27273 96.4506 7.06392 96.2802 6.91619C96.1126 6.76847 95.8739 6.6946 95.5643 6.6946C95.2376 6.6946 94.9776 6.76705 94.7844 6.91193C94.5913 7.05398 94.4634 7.23295 94.4009 7.44886L92.7219 7.3125C92.8072 6.91477 92.9748 6.57102 93.2248 6.28125C93.4748 5.98864 93.7972 5.7642 94.1921 5.60795C94.5898 5.44886 95.0501 5.36932 95.5728 5.36932C95.9364 5.36932 96.2844 5.41193 96.6168 5.49716C96.9521 5.58239 97.2489 5.71449 97.5075 5.89347C97.7688 6.07244 97.9748 6.30256 98.1254 6.58381C98.2759 6.86222 98.3512 7.19602 98.3512 7.58523V12H96.6296V11.0923H96.5785C96.4734 11.2969 96.3327 11.4773 96.1566 11.6335C95.9805 11.7869 95.7688 11.9077 95.5217 11.9957C95.2745 12.081 94.989 12.1236 94.6651 12.1236ZM95.185 10.8707C95.4521 10.8707 95.6879 10.8182 95.8924 10.7131C96.0969 10.6051 96.2575 10.4602 96.3739 10.2784C96.4904 10.0966 96.5487 9.89062 96.5487 9.66051V8.96591C96.4918 9.00284 96.4137 9.03693 96.3143 9.06818C96.2177 9.09659 96.1083 9.12358 95.9862 9.14915C95.864 9.17187 95.7418 9.19318 95.6197 9.21307C95.4975 9.23011 95.3867 9.24574 95.2873 9.25994C95.0742 9.29119 94.8881 9.34091 94.729 9.40909C94.57 9.47727 94.4464 9.5696 94.3583 9.68608C94.2702 9.79972 94.2262 9.94176 94.2262 10.1122C94.2262 10.3594 94.3157 10.5483 94.4947 10.679C94.6765 10.8068 94.9066 10.8707 95.185 10.8707ZM101.575 8.21591V12H99.7596V3.27273H101.524V6.60938H101.6C101.748 6.22301 101.987 5.92045 102.316 5.7017C102.646 5.48011 103.059 5.36932 103.556 5.36932C104.011 5.36932 104.407 5.46875 104.745 5.66761C105.086 5.86364 105.35 6.14631 105.538 6.51562C105.728 6.8821 105.822 7.32102 105.819 7.83239V12H104.004V8.15625C104.007 7.75284 103.904 7.43892 103.697 7.21449C103.493 6.99006 103.206 6.87784 102.836 6.87784C102.589 6.87784 102.37 6.9304 102.18 7.03551C101.993 7.14062 101.845 7.29403 101.737 7.49574C101.632 7.6946 101.578 7.93466 101.575 8.21591Z" fill="whitesmoke"/>
</svg>
